<mxfile host="app.diagrams.net" modified="2023-11-15T05:51:57.875Z" agent="Mozilla/5.0 (Windows NT 10.0; Win64; x64) AppleWebKit/537.36 (KHTML, like Gecko) Chrome/118.0.0.0 Safari/537.36" version="22.1.1" etag="OJ9SafypZ1xbSeE6KYSk" type="github">
  <diagram name="Page-1" id="uIkVyBnKydNAvr-vmXpR">
    <mxGraphModel>
      <root>
        <mxCell id="0" />
        <mxCell id="1" parent="0" />
      </root>
    </mxGraphModel>
  </diagram>
</mxfile>
